<svg width="221" height="221" viewBox="0 0 221 221" fill="none" xmlns="http://www.w3.org/2000/svg">
<g clip-path="url(#clip0_23_223)">
<path d="M220.782 64.9746C220.265 53.232 218.366 45.1591 215.645 38.1638C212.839 30.7385 208.522 24.0906 202.866 18.5642C197.339 12.9517 190.648 8.59065 183.308 5.82829C176.272 3.10808 168.242 1.20917 156.499 0.691434C144.669 0.129855 140.913 0 110.908 0C80.9034 0 77.1478 0.129855 65.3613 0.647587C53.6187 1.16532 45.5458 3.06592 38.5522 5.78444C31.1252 8.59065 24.4773 12.9079 18.9509 18.5642C13.3385 24.0906 8.97906 30.7823 6.21501 38.1217C3.4948 45.1591 1.59589 53.1882 1.07815 64.9308C0.516573 76.761 0.386719 80.5167 0.386719 110.522C0.386719 140.526 0.516573 144.282 1.03431 156.069C1.55204 167.811 3.45264 175.884 6.17285 182.879C8.97906 190.305 13.3385 196.953 18.9509 202.479C24.4773 208.091 31.169 212.453 38.5084 215.215C45.5458 217.935 53.5749 219.834 65.3192 220.352C77.1039 220.871 80.8613 220.999 110.866 220.999C140.871 220.999 144.627 220.871 156.413 220.352C168.156 219.834 176.229 217.935 183.222 215.215C198.075 209.473 209.817 197.73 215.559 182.879C218.278 175.842 220.179 167.811 220.696 156.069C221.214 144.282 221.344 140.526 221.344 110.522C221.344 80.5167 221.3 76.761 220.782 64.9746ZM200.881 155.205C200.405 165.998 198.592 171.827 197.081 175.712C193.368 185.34 185.727 192.981 176.099 196.695C172.213 198.206 166.343 200.019 155.592 200.492C143.935 201.012 140.439 201.14 110.952 201.14C81.465 201.14 77.9252 201.012 66.3108 200.492C55.5177 200.019 49.6894 198.206 45.8039 196.695C41.0127 194.924 36.6516 192.118 33.1118 188.448C29.4421 184.864 26.6359 180.547 24.8652 175.756C23.3542 171.87 21.5412 165.998 21.0674 155.249C20.5479 143.592 20.4198 140.095 20.4198 110.608C20.4198 81.1204 20.5479 77.5806 21.0674 65.9679C21.5412 55.1748 23.3542 49.3465 24.8652 45.461C26.6359 40.6682 29.4421 36.3087 33.1557 32.7673C36.7376 29.0976 41.0549 26.2914 45.8477 24.5223C49.7332 23.0113 55.6054 21.1984 66.3546 20.7228C78.0112 20.2051 81.5089 20.0752 110.994 20.0752C140.525 20.0752 144.021 20.2051 155.636 20.7228C166.429 21.1984 172.257 23.0113 176.143 24.5223C180.934 26.2914 185.295 29.0976 188.835 32.7673C192.504 36.3509 195.311 40.6682 197.081 45.461C198.592 49.3465 200.405 55.2169 200.881 65.9679C201.399 77.6245 201.528 81.1204 201.528 110.608C201.528 140.095 201.399 143.549 200.881 155.205Z" fill="#E91E63"/>
<path d="M110.909 53.75C79.5663 53.75 54.1367 79.1779 54.1367 110.522C54.1367 141.866 79.5663 167.294 110.909 167.294C142.252 167.294 167.68 141.866 167.68 110.522C167.68 79.1779 142.252 53.75 110.909 53.75ZM110.909 147.348C90.5753 147.348 74.0821 130.857 74.0821 110.522C74.0821 90.1869 90.5753 73.6954 110.909 73.6954C131.243 73.6954 147.735 90.1869 147.735 110.522C147.735 130.857 131.243 147.348 110.909 147.348Z" fill="#E91E63"/>
<path d="M183.181 51.5056C183.181 58.8247 177.246 64.7592 169.925 64.7592C162.606 64.7592 156.672 58.8247 156.672 51.5056C156.672 44.1848 162.606 38.252 169.925 38.252C177.246 38.252 183.181 44.1848 183.181 51.5056Z" fill="#E91E63"/>
</g>
<defs>
<clipPath id="clip0_23_223">
<rect width="221" height="221" fill="white"/>
</clipPath>
</defs>
</svg>
