<svg width="174" height="174" viewBox="0 0 174 174" fill="none" xmlns="http://www.w3.org/2000/svg">
<path d="M156.599 156.6V105.618C156.599 80.5619 151.205 61.4219 121.973 61.4219C107.879 61.4219 98.4826 69.0779 94.6546 76.3859H94.3066V63.6839H66.6406V156.6H95.5246V110.49C95.5246 98.3099 97.7866 86.6519 112.751 86.6519C127.541 86.6519 127.715 100.398 127.715 111.186V156.426H156.599V156.6Z" fill="#E91E63"/>
<path d="M19.6602 63.6836H48.5442V156.6H19.6602V63.6836Z" fill="#E91E63"/>
<path d="M34.1024 17.4004C24.8804 17.4004 17.3984 24.8824 17.3984 34.1044C17.3984 43.3264 24.8804 50.9824 34.1024 50.9824C43.3244 50.9824 50.8064 43.3264 50.8064 34.1044C50.8064 24.8824 43.3244 17.4004 34.1024 17.4004Z" fill="#E91E63"/>
</svg>
