<svg width="202" height="202" viewBox="0 0 202 202" fill="none" xmlns="http://www.w3.org/2000/svg">
<path fill-rule="evenodd" clip-rule="evenodd" d="M167.986 33.7338C150.269 15.996 126.707 6.22329 101.605 6.21289C49.8807 6.21289 7.7845 48.3079 7.7637 100.046C7.75676 116.585 12.0773 132.73 20.2897 146.961L6.97656 195.588L56.7233 182.538C70.4306 190.016 85.8624 193.956 101.567 193.96H101.606C153.325 193.96 195.426 151.862 195.445 100.121C195.456 75.0463 185.704 51.4703 167.986 33.7338ZM101.605 178.113H101.573C87.5777 178.107 73.8519 174.346 61.875 167.241L59.0281 165.55L29.5076 173.294L37.3871 144.512L35.5319 141.561C27.7241 129.143 23.6012 114.789 23.6081 100.052C23.6243 57.0485 58.6143 22.062 101.636 22.062C122.469 22.0689 142.053 30.1922 156.779 44.9351C171.504 59.678 179.609 79.2744 179.602 100.116C179.584 143.123 144.596 178.113 101.605 178.113ZM144.388 119.697C142.044 118.523 130.515 112.852 128.365 112.068C126.218 111.286 124.653 110.896 123.091 113.243C121.527 115.589 117.035 120.871 115.666 122.435C114.298 124 112.931 124.197 110.586 123.022C108.241 121.849 100.686 119.372 91.7295 111.384C84.7597 105.167 80.0542 97.4883 78.6857 95.1419C77.3195 92.7932 78.6741 91.6466 79.7144 90.3567C82.2527 87.2047 84.7944 83.9001 85.5757 82.3362C86.3583 80.7712 85.9664 79.4015 85.3792 78.2283C84.7944 77.0551 80.1051 65.5139 78.1517 60.8177C76.2468 56.2475 74.3154 56.8647 72.8752 56.793C71.509 56.7248 69.9451 56.711 68.3813 56.711C66.8186 56.711 64.278 57.297 62.1281 59.6457C59.9794 61.9932 53.9227 67.665 53.9227 79.2062C53.9227 90.7474 62.3246 101.897 63.4966 103.462C64.6687 105.027 80.0311 128.71 103.552 138.866C109.146 141.284 113.513 142.725 116.919 143.806C122.536 145.59 127.646 145.338 131.687 144.735C136.193 144.061 145.559 139.062 147.514 133.586C149.468 128.108 149.468 123.414 148.881 122.435C148.296 121.457 146.732 120.871 144.388 119.697Z" fill="#E91E63"/>
</svg>
